# xmcd
#
# Track frame offsets:
#	150
#	20837
#	43410
#	67832
#	88737
#	109110
#	131412
#	158482
#	177825
#	202697
#	226150
#
# Disc length: 3273 seconds
#
# Revision: 2
# Processed by: cddbd v1.5.2PL0 Copyright (c) Steve Scherf et al.
# Submitted via: EZCDAudioConverter 8.0.2.1
#
DISCID=850cc70b
DTITLE=Ngọc Hạ - Tình Hoài Hương
DYEAR=2004
DGENRE=
TTITLE0=Tình Hoài Hương
TTITLE1=Đưa em tìm động hoa vàng
TTITLE2=Áo tứ thân
TTITLE3=Mộng ban đầu
TTITLE4=Giấc mơ hồi hương
TTITLE5=Về lại phố xưa
TTITLE6=Bài hát ru mùa đông
TTITLE7=Tình khúc mùa đông
TTITLE8=Nỗi buồn xa xứ
TTITLE9=Lỡ cung đàn
TTITLE10=Mây trắng qua cầu
EXTD=
EXTT0=
EXTT1=
EXTT2=
EXTT3=
EXTT4=
EXTT5=
EXTT6=
EXTT7=
EXTT8=
EXTT9=
EXTT10=
PLAYORDER=
